<svg xmlns="http://www.w3.org/2000/svg" width="39.701" height="54.224" viewBox="0 0 39.701 54.224"><g transform="translate(5183.625 -458.89)"><g transform="translate(-5183.625 458.89)"><g transform="translate(0.237 29.915)"><path d="M69.529,280l-3.486,22.658a1.43,1.43,0,0,0,2.807.539L74.2,280Z" transform="translate(-66.027 -280)" fill="#fff"/><path d="M155.505,280l-3.486,22.658a1.43,1.43,0,0,0,2.807.539l5.353-23.2Z" transform="translate(-141.956 -280)" fill="#fff"/><path d="M270.7,280l3.486,22.658a1.43,1.43,0,0,1-2.807.539L266.024,280Z" transform="translate(-242.653 -280)" fill="#fff"/><path d="M334.7,280l3.486,22.658a1.43,1.43,0,0,1-2.807.539L330.024,280Z" transform="translate(-299.175 -280)" fill="#fff"/></g><path d="M97.87,46.436h2.141a6.354,6.354,0,0,0,5.949-4.123l5.958-15.887a3.739,3.739,0,0,1,3.5-2.426h12.8a3.739,3.739,0,0,1,3.71,4.2L130.35,40.871a6.354,6.354,0,0,1-6.3,5.566h0a1.87,1.87,0,0,0-1.87,1.87V52.98H96V48.306A1.87,1.87,0,0,1,97.87,46.436Z" transform="translate(-92.261 -24)" fill="#fff"/><path d="M97.87,248h18.7a1.87,1.87,0,0,1,1.87,1.87v1.87H96v-1.87A1.87,1.87,0,0,1,97.87,248Z" transform="translate(-92.261 -221.825)" fill="#fff"/><path d="M301.5,28.2l-2.279,18.233h-5.609a1.869,1.869,0,0,0-1.87,1.87v5.609H288V48.306a1.869,1.869,0,0,1,1.87-1.87,6.354,6.354,0,0,0,6.3-5.566l.944-7.547a10.693,10.693,0,0,0-3.5-9.323h4.176a3.739,3.739,0,0,1,3.71,4.2Z" transform="translate(-261.825 -24)" fill="#fff"/><path d="M326.544,181.415H320v-5.609a1.87,1.87,0,0,1,1.87-1.87h0a6.354,6.354,0,0,0,6.3-5.566Z" transform="translate(-290.085 -151.5)" fill="#fff"/><path d="M67.739,223.479H64V217.87A1.87,1.87,0,0,1,65.87,216h3.739a1.87,1.87,0,0,0-1.87,1.87Z" transform="translate(-64 -193.564)" fill="#fff"/></g></g></svg>