<?xml version="1.0" encoding="iso-8859-1"?>
<!-- Generator: Adobe Illustrator 19.0.0, SVG Export Plug-In . SVG Version: 6.00 Build 0)  -->
<svg version="1.1" id="Capa_1" xmlns="http://www.w3.org/2000/svg" xmlns:xlink="http://www.w3.org/1999/xlink" x="0px" y="0px"
	 viewBox="0 0 512 512" style="enable-background:new 0 0 512 512;" xml:space="preserve">
<polygon style="fill:#806749;" points="418.464,122.739 206.026,0 93.555,65.314 93.537,71.936 96.467,73.629 96.455,73.636 
	95.649,357.637 101.571,361.056 101.475,394.816 110.237,399.874 126.661,390.328 295.737,487.944 295.682,506.942 304.444,512 
	415.552,447.431 416.451,130.519 418.445,129.361 "/>
<g style="enable-background:new    ;">
	<polygon style="fill:#806749;" points="111.127,85.785 222.235,21.217 221.345,335.305 110.237,399.874 	"/>
	<g>
		<g>
			<polygon style="fill:#806749;" points="304.614,465.29 310.169,462.062 310.091,489.796 304.536,493.024 			"/>
			<polygon style="fill:#806749;" points="119.717,358.54 125.273,355.311 310.169,462.062 304.614,465.29 			"/>
		</g>
		<polygon style="fill:#957755;" points="304.614,465.29 304.536,493.024 119.638,386.274 119.717,358.54 		"/>
	</g>
	<g>
		<polygon style="fill:#806749;" points="305.363,187.843 416.472,123.274 415.552,447.431 304.444,512 		"/>
		<polygon style="fill:#806749;" points="102.393,70.659 213.503,6.09 416.472,123.274 305.363,187.843 		"/>
	</g>
	<polygon style="fill:#A78967;" points="305.363,187.843 304.444,512 295.682,506.942 296.573,192.853 111.127,85.785 
		110.237,399.874 101.475,394.816 102.393,70.659 	"/>
</g>
<path style="fill:#B39A7C;" d="M102.01,70.408l-5.555,3.229L95.65,357.637l102.292,58.594l4.75-3.229l0.805-284.001L102.01,70.408z"
	/>
<g style="enable-background:new    ;">
	<polygon style="fill:#BFAB92;" points="108.657,347.874 114.212,344.646 189.778,388.273 184.222,391.502 	"/>
	<polygon style="fill:#957755;" points="108.992,229.777 114.548,226.548 114.212,344.646 108.657,347.874 	"/>
	<polygon style="fill:#BFAB92;" points="109.03,216.46 114.585,213.231 190.15,256.859 184.594,260.087 	"/>
	<polygon style="fill:#957755;" points="109.365,98.357 114.92,95.128 114.585,213.231 109.03,216.46 	"/>
	<polygon style="fill:#806749;" points="197.942,132.23 203.498,129.001 202.692,413.002 197.942,416.231 	"/>
	<polygon style="fill:#B39A7C;" points="96.455,73.636 102.01,70.408 203.498,129.001 197.942,132.23 	"/>
	<path style="fill:#A78967;" d="M96.455,73.636l101.487,58.594v284.001L95.65,357.637L96.455,73.636z M184.594,260.087
		l0.335-118.103l-75.564-43.627L109.03,216.46L184.594,260.087 M184.222,391.502l0.335-118.098l-75.564-43.627l-0.335,118.098
		L184.222,391.502"/>
</g>
<path style="fill:#B39A7C;" d="M204.278,129.511l-5.555,3.229V416.74l100.683,58.594l5.555-3.229l0.805-284.001L204.278,129.511z"/>
<g style="enable-background:new    ;">
	<polygon style="fill:#BFAB92;" points="210.925,406.977 216.481,403.749 292.051,447.378 286.495,450.607 	"/>
	<polygon style="fill:#957755;" points="211.26,288.88 216.816,285.651 216.481,403.749 210.925,406.977 	"/>
	<polygon style="fill:#BFAB92;" points="211.298,275.563 216.853,272.334 292.422,315.964 286.867,319.192 	"/>
	<g>
		<polygon style="fill:#957755;" points="211.633,157.465 217.188,154.237 216.853,272.334 211.298,275.563 		"/>
		<polygon style="fill:#957755;" points="300.21,191.333 305.766,188.104 304.961,472.105 299.405,475.334 		"/>
	</g>
	<polygon style="fill:#B39A7C;" points="198.723,132.739 204.278,129.511 305.766,188.104 300.21,191.333 	"/>
	<path style="fill:#A78967;" d="M198.723,132.739l101.487,58.594l-0.805,284.001L198.723,416.74L198.723,132.739z M286.867,319.192
		l0.335-118.098l-75.569-43.631l-0.335,118.098L286.867,319.192 M286.495,450.607l0.335-118.097L211.26,288.88l-0.335,118.097
		L286.495,450.607"/>
</g>
<g>
	<circle style="fill:#6A563D;" cx="190.152" cy="268.282" r="7.019"/>
	<circle style="fill:#6A563D;" cx="203.106" cy="275.307" r="7.019"/>
</g>
<g style="enable-background:new    ;">
	<polygon style="fill:#A78967;" points="418.464,122.739 418.445,129.361 305.974,194.675 305.993,188.053 	"/>
	<polygon style="fill:#B39A7C;" points="305.993,188.053 305.974,194.675 93.537,71.936 93.555,65.314 	"/>
	<polygon style="fill:#BFAB92;" points="418.464,122.739 305.993,188.053 93.555,65.314 206.026,0 	"/>
</g>
<g>
</g>
<g>
</g>
<g>
</g>
<g>
</g>
<g>
</g>
<g>
</g>
<g>
</g>
<g>
</g>
<g>
</g>
<g>
</g>
<g>
</g>
<g>
</g>
<g>
</g>
<g>
</g>
<g>
</g>
</svg>
