<svg height="512pt" viewBox="0 -17 512 512" width="512pt" xmlns="http://www.w3.org/2000/svg"><path d="m495.351562 201.886719v266.40625c0 5.746093-4.660156 10.40625-10.40625 10.40625h-457.886718c-5.75 0-10.410156-4.660157-10.410156-10.40625v-266.40625zm0 0" fill="#a77554"/><path d="m475.578125 201.886719v236.226562c0 11.496094-9.320313 20.816407-20.8125 20.816407h-438.117187v9.363281c0 5.746093 4.660156 10.40625 10.410156 10.40625h457.882812c5.75 0 10.40625-4.660157 10.40625-10.40625v-266.40625zm0 0" fill="#915431"/><path d="m501.59375 201.886719h-491.1875c-5.746094 0-10.40625-4.660157-10.40625-10.40625v-18.734375c0-5.746094 4.660156-10.40625 10.40625-10.40625h491.1875c5.746094 0 10.40625 4.660156 10.40625 10.40625v18.734375c0 5.746093-4.660156 10.40625-10.40625 10.40625zm0 0" fill="#da2f3c"/><path d="m495.351562 162.34375v16.648438c0 3.449218-2.796874 6.242187-6.246093 6.242187h-489.105469v6.246094c0 5.746093 4.660156 10.40625 10.40625 10.40625h491.1875c5.746094 0 10.40625-4.660157 10.40625-10.40625v-18.734375c0-5.746094-4.660156-10.40625-10.40625-10.40625h-6.242188zm0 0" fill="#c62430"/><path d="m433.949219 162.34375h-41.625l-3.621094-45.292969c-.292969-3.632812 2.578125-6.742187 6.222656-6.742187h36.425781c3.644532 0 6.511719 3.109375 6.222657 6.742187zm0 0" fill="#ffe046"/><path d="m343.414062 367.871094c-4.308593 0-7.804687-3.496094-7.804687-7.804688 0-4.3125 3.496094-7.804687 7.804687-7.804687h83.253907c4.308593 0 7.804687 3.492187 7.804687 7.804687 0 4.308594-3.496094 7.804688-7.804687 7.804688zm0 0" fill="#c8d2dc"/><path d="m437.074219 245.59375h-104.066407c-5.746093 0-10.40625 4.660156-10.40625 10.40625v14.570312c0 5.746094 4.660157 10.40625 10.40625 10.40625h44.226563v172.421876c0 4.273437 3.296875 8 7.566406 8.125 4.421875.132812 8.046875-3.410157 8.046875-7.800782v-172.746094h44.226563c5.746093 0 10.40625-4.660156 10.40625-10.40625v-14.570312c0-5.746094-4.660157-10.40625-10.40625-10.40625zm0 0" fill="#495959"/><path d="m430.828125 245.59375v35.382812h6.246094c5.746093 0 10.40625-4.660156 10.40625-10.40625v-14.570312c0-5.746094-4.660157-10.40625-10.40625-10.40625zm0 0" fill="#3f4a4a"/><path d="m388.03125 444.214844 41.625 12.488281c4.402344 1.320313 7.417969 5.371094 7.417969 9.96875v1.621094c0 5.746093-4.660157 10.40625-10.410157 10.40625h-83.25c-5.746093 0-10.40625-4.660157-10.40625-10.40625v-1.621094c0-4.597656 3.011719-8.648437 7.414063-9.96875l41.628906-12.488281c1.949219-.585938 4.027344-.585938 5.980469 0zm0 0" fill="#c8d2dc"/><path d="m418.339844 453.308594v25.390625h8.324218c5.75 0 10.410157-4.660157 10.410157-10.40625v-1.621094c0-4.597656-3.015625-8.648437-7.417969-9.96875zm0 0" fill="#b9c3cd"/><path d="m85.332031 367.871094c-4.308593 0-7.804687-3.496094-7.804687-7.804688 0-4.3125 3.496094-7.804687 7.804687-7.804687h83.253907c4.308593 0 7.804687 3.492187 7.804687 7.804687 0 4.308594-3.496094 7.804688-7.804687 7.804688zm0 0" fill="#c8d2dc"/><path d="m178.992188 245.59375h-104.066407c-5.746093 0-10.40625 4.660156-10.40625 10.40625v14.570312c0 5.746094 4.660157 10.40625 10.40625 10.40625h44.230469v172.421876c0 4.273437 3.292969 8 7.566406 8.125 4.417969.132812 8.042969-3.410157 8.042969-7.800782v-172.746094h44.226563c5.746093 0 10.40625-4.660156 10.40625-10.40625v-14.570312c0-5.746094-4.660157-10.40625-10.40625-10.40625zm0 0" fill="#495959"/><path d="m172.746094 245.59375v35.382812h6.246094c5.746093 0 10.40625-4.660156 10.40625-10.40625v-14.570312c0-5.746094-4.660157-10.40625-10.40625-10.40625zm0 0" fill="#3f4a4a"/><path d="m129.539062 444.089844 43.058594 12.917968c3.796875 1.140626 6.394532 4.632813 6.394532 8.597657v4.121093c0 4.957032-4.019532 8.972657-8.972657 8.972657h-86.121093c-4.953126 0-8.972657-4.015625-8.972657-8.972657v-4.121093c0-3.964844 2.597657-7.457031 6.394531-8.597657l43.058594-12.917968c1.683594-.503906 3.476563-.503906 5.160156 0zm0 0" fill="#c8d2dc"/><path d="m160.261719 453.308594v25.390625h8.324219c5.746093 0 10.40625-4.660157 10.40625-10.40625v-1.621094c0-4.597656-3.015626-8.648437-7.417969-9.96875zm0 0" fill="#b9c3cd"/><path d="m352.933594 41.640625-7.957032-8.753906v-25.082031c0-4.308594-3.496093-7.804688-7.804687-7.804688-4.3125 0-7.804687 3.492188-7.804687 7.804688v25.082031l-7.960938 8.753906c-8.289062 9.117187-12.851562 20.925781-12.851562 33.25v79.644531c0 4.3125 3.492187 7.808594 7.804687 7.808594h41.625c4.3125 0 7.804687-3.496094 7.804687-7.808594v-79.644531c0-12.324219-4.566406-24.132813-12.855468-33.25zm0 0" fill="#6dc54a"/><path d="m187.167969 76.160156c1.875-2.34375 2.238281-5.550781.941406-8.257812-1.300781-2.703125-4.035156-4.421875-7.035156-4.421875h-83.253907c-3 0-5.734374 1.71875-7.035156 4.421875-1.300781 2.703125-.933594 5.914062.941406 8.257812l39.914063 49.894532v20.675781h-13.007813c-4.308593 0-7.804687 3.496093-7.804687 7.804687 0 4.3125 3.496094 7.808594 7.804687 7.808594h41.628907c4.308593 0 7.804687-3.496094 7.804687-7.808594 0-4.308594-3.496094-7.804687-7.804687-7.804687h-13.007813v-20.675781zm0 0" fill="#81b8fd"/><path d="m431.351562 110.308594h-6.59375c3.644532 0 6.515626 3.109375 6.226563 6.742187l-3.625 45.292969h6.589844l3.625-45.292969c.289062-3.632812-2.578125-6.742187-6.222657-6.742187zm0 0" fill="#eec707"/><path d="m352.933594 41.640625-7.957032-8.753906v-25.082031c0-4.308594-3.496093-7.804688-7.804687-7.804688-1.179687 0-2.292969.269531-3.296875.738281 2.660156 1.242188 4.511719 3.933594 4.511719 7.066407v25.082031l7.957031 8.753906c8.289062 9.117187 12.855469 20.925781 12.855469 33.25v79.644531c0 4.3125-3.496094 7.808594-7.804688 7.808594h6.589844c4.3125 0 7.804687-3.496094 7.804687-7.808594v-79.644531c0-12.324219-4.566406-24.132813-12.855468-33.25zm0 0" fill="#5db33a"/><g fill="#62a6fd"><path d="m160.261719 146.730469h-6.59375c4.3125 0 7.804687 3.496093 7.804687 7.804687 0 4.3125-3.492187 7.808594-7.804687 7.808594h6.59375c4.308593 0 7.804687-3.496094 7.804687-7.808594 0-4.308594-3.496094-7.804687-7.804687-7.804687zm0 0"/><path d="m188.109375 67.902344c-1.300781-2.703125-4.035156-4.421875-7.035156-4.421875h-6.59375c3 0 5.738281 1.71875 7.035156 4.421875 1.300781 2.707031.933594 5.914062-.9375 8.257812l-39.917969 49.894532v20.679687h6.59375v-20.679687l39.914063-49.894532c1.875-2.34375 2.238281-5.550781.941406-8.257812zm0 0"/></g></svg>