<svg id="Capa_1" enable-background="new 0 0 512 512" height="512" viewBox="0 0 512 512" width="512" xmlns="http://www.w3.org/2000/svg"><g><g><path d="m478.699 33.301h-445.398c-3.448 0-6.244-2.795-6.244-6.244v-20.813c0-3.449 2.795-6.244 6.244-6.244h445.398c3.448 0 6.244 2.795 6.244 6.244v20.813c0 3.448-2.795 6.244-6.244 6.244z" fill="#c86d36"/></g><g><path d="m47.87 33.301h416.26v445.398h-416.26z" fill="#dc8758"/></g><g><path d="m430.829 33.301h33.301v445.398h-33.301z" fill="#c86d36"/></g><g><path d="m420.423 66.602h-328.846c-5.747 0-10.407 4.659-10.407 10.406v31.22h66.602v33.301h66.602v74.927h83.252v-74.927h133.203v-64.52c0-5.748-4.659-10.407-10.406-10.407z" fill="#ac5e2e"/></g><g><path d="m297.626 216.455v-74.927c0-4.598 3.727-8.325 8.325-8.325h16.65c4.598 0 8.325 3.727 8.325 8.325v74.927z" fill="#fd8087"/></g><g><path d="m364.228 216.455v-74.927c0-4.598 3.727-8.325 8.325-8.325h16.65c4.598 0 8.325 3.727 8.325 8.325v74.927z" fill="#ffe177"/></g><g><path d="m397.528 216.455v-74.927c0-4.598 3.727-8.325 8.325-8.325h16.65c4.598 0 8.325 3.727 8.325 8.325v64.52c0 5.747-4.659 10.407-10.406 10.407z" fill="#bbec6c"/></g><g><path d="m330.927 216.455v-108.227c0-4.598 3.727-8.325 8.325-8.325h16.65c4.598 0 8.325 3.727 8.325 8.325v108.228h-33.3z" fill="#99e6fc"/></g><g><path d="m147.772 216.455v-74.927c0-4.598 3.727-8.325 8.325-8.325h16.65c4.598 0 8.325 3.727 8.325 8.325v74.927z" fill="#99e6fc"/></g><g><path d="m181.073 216.455v-74.927c0-4.598 3.727-8.325 8.325-8.325h16.65c4.598 0 8.325 3.727 8.325 8.325v74.927z" fill="#62dbfb"/></g><g><path d="m114.472 216.455v-108.227c0-4.598 3.727-8.325 8.325-8.325h16.65c4.598 0 8.325 3.727 8.325 8.325v108.228h-33.3z" fill="#62dbfb"/></g><g><path d="m81.171 206.049v-97.821c0-4.598 3.727-8.325 8.325-8.325h16.65c4.598 0 8.325 3.727 8.325 8.325v108.228h-22.894c-5.747-.001-10.406-4.66-10.406-10.407z" fill="#99e6fc"/></g><g><path d="m420.423 295.545h-328.846c-5.747 0-10.407 4.659-10.407 10.406v31.22h133.203v108.228h83.252v-74.927h133.203v-64.52c.001-5.748-4.658-10.407-10.405-10.407z" fill="#ac5e2e"/></g><g><path d="m297.626 445.398v-74.927c0-4.598 3.727-8.325 8.325-8.325h16.65c4.598 0 8.325 3.727 8.325 8.325v74.927z" fill="#fd8087"/></g><g><path d="m364.228 445.398v-74.927c0-4.598 3.727-8.325 8.325-8.325h16.65c4.598 0 8.325 3.727 8.325 8.325v74.927z" fill="#ffe177"/></g><g><path d="m397.528 445.398v-74.927c0-4.598 3.727-8.325 8.325-8.325h16.65c4.598 0 8.325 3.727 8.325 8.325v64.52c0 5.747-4.659 10.406-10.406 10.406h-22.894z" fill="#bbec6c"/></g><g><path d="m330.927 445.398v-108.227c0-4.598 3.727-8.325 8.325-8.325h16.65c4.598 0 8.325 3.727 8.325 8.325v108.228h-33.3z" fill="#99e6fc"/></g><g><path d="m147.772 445.398v-108.227c0-4.598 3.727-8.325 8.325-8.325h16.65c4.598 0 8.325 3.727 8.325 8.325v108.228h-33.3z" fill="#ffe177"/></g><g><path d="m181.073 445.398v-108.227c0-4.598 3.727-8.325 8.325-8.325h16.65c4.598 0 8.325 3.727 8.325 8.325v108.228h-33.3z" fill="#bbec6c"/></g><g><path d="m114.472 445.398v-108.227c0-4.598 3.727-8.325 8.325-8.325h16.65c4.598 0 8.325 3.727 8.325 8.325v108.228h-33.3z" fill="#fd8087"/></g><g><path d="m81.171 434.992v-97.821c0-4.598 3.727-8.325 8.325-8.325h16.65c4.598 0 8.325 3.727 8.325 8.325v108.228h-22.894c-5.747-.001-10.406-4.66-10.406-10.407z" fill="#0573ce"/></g><g><path d="m478.699 0h-33.301c3.448 0 6.244 2.795 6.244 6.244v20.813c0 3.448-2.795 6.244-6.244 6.244h33.301c3.448 0 6.244-2.795 6.244-6.244v-20.813c0-3.449-2.795-6.244-6.244-6.244z" fill="#ac5e2e"/></g><g><path d="m478.699 512h-445.398c-3.448 0-6.244-2.796-6.244-6.244v-20.813c0-3.448 2.795-6.244 6.244-6.244h445.398c3.448 0 6.244 2.796 6.244 6.244v20.813c0 3.448-2.795 6.244-6.244 6.244z" fill="#c86d36"/></g><g><path d="m478.699 478.699h-33.301c3.448 0 6.244 2.795 6.244 6.244v20.813c0 3.448-2.795 6.244-6.244 6.244h33.301c3.448 0 6.244-2.795 6.244-6.244v-20.813c0-3.448-2.795-6.244-6.244-6.244z" fill="#ac5e2e"/></g><g><path d="m380.878 263.5h-33.301c-4.142 0-7.5-3.358-7.5-7.5s3.358-7.5 7.5-7.5h33.301c4.142 0 7.5 3.358 7.5 7.5s-3.358 7.5-7.5 7.5z" fill="#ac5e2e"/></g><g><path d="m164.423 263.5h-33.301c-4.142 0-7.5-3.358-7.5-7.5s3.358-7.5 7.5-7.5h33.301c4.142 0 7.5 3.358 7.5 7.5s-3.358 7.5-7.5 7.5z" fill="#ac5e2e"/></g></g></svg>