<svg id="Capa_1" enable-background="new 0 0 512 512" height="512" viewBox="0 0 512 512" width="512" xmlns="http://www.w3.org/2000/svg"><g><path d="m30.333 72v339.277h9.667c0-7.836 5.647-14.594 13.392-15.79 12.483-1.927 29.186-3.487 50.608-3.487 56 0 80 16 152 16s96-16 152-16c21.422 0 38.125 1.56 50.608 3.487 7.744 1.196 13.392 7.954 13.392 15.79v28.723c0 4.418 3.582 8 8 8s8-3.582 8-8v-344l-21.667-24z" fill="#ffe09f"/><path d="m240 160h-168c-4.418 0-8-3.582-8-8v-32c0-4.418 3.582-8 8-8h168c4.418 0 8 3.582 8 8v32c0 4.418-3.582 8-8 8z" fill="#f6d190"/><path d="m56 96h432v-24h-464v368c0 4.418 3.582 8 8 8s8-3.582 8-8v-328c0-8.837 7.163-16 16-16z" fill="#f6d190"/><path d="m168 128c0 4.262-5.609 8-12 8s-12-3.738-12-8h-16c0 13.234 12.563 24 28 24s28-10.766 28-24z" fill="#eceaec"/><path d="m504 80h-496c-4.422 0-8-3.582-8-8s3.578-8 8-8h496c4.422 0 8 3.582 8 8s-3.578 8-8 8z" fill="#ffe09f"/><g fill="#f6d190"><path d="m440 160h-168c-4.418 0-8-3.582-8-8v-32c0-4.418 3.582-8 8-8h168c4.418 0 8 3.582 8 8v32c0 4.418-3.582 8-8 8z"/><path d="m240 256h-168c-4.418 0-8-3.582-8-8v-32c0-4.418 3.582-8 8-8h168c4.418 0 8 3.582 8 8v32c0 4.418-3.582 8-8 8z"/><path d="m440 256h-168c-4.418 0-8-3.582-8-8v-32c0-4.418 3.582-8 8-8h168c4.418 0 8 3.582 8 8v32c0 4.418-3.582 8-8 8z"/><path d="m240 352h-168c-4.418 0-8-3.582-8-8v-32c0-4.418 3.582-8 8-8h168c4.418 0 8 3.582 8 8v32c0 4.418-3.582 8-8 8z"/><path d="m440 352h-168c-4.418 0-8-3.582-8-8v-32c0-4.418 3.582-8 8-8h168c4.418 0 8 3.582 8 8v32c0 4.418-3.582 8-8 8z"/></g><circle cx="136" cy="128" fill="#fff" r="8"/><circle cx="176" cy="128" fill="#fff" r="8"/><path d="m368 128c0 4.262-5.609 8-12 8s-12-3.738-12-8h-16c0 13.234 12.563 24 28 24s28-10.766 28-24z" fill="#eceaec"/><circle cx="336" cy="128" fill="#fff" r="8"/><circle cx="376" cy="128" fill="#fff" r="8"/><path d="m168 224c0 4.262-5.609 8-12 8s-12-3.738-12-8h-16c0 13.234 12.563 24 28 24s28-10.766 28-24z" fill="#eceaec"/><circle cx="136" cy="224" fill="#fff" r="8"/><circle cx="176" cy="224" fill="#fff" r="8"/><path d="m368 224c0 4.262-5.609 8-12 8s-12-3.738-12-8h-16c0 13.234 12.563 24 28 24s28-10.766 28-24z" fill="#eceaec"/><circle cx="336" cy="224" fill="#fff" r="8"/><circle cx="376" cy="224" fill="#fff" r="8"/><path d="m168 320c0 4.262-5.609 8-12 8s-12-3.738-12-8h-16c0 13.234 12.563 24 28 24s28-10.766 28-24z" fill="#eceaec"/><circle cx="136" cy="320" fill="#fff" r="8"/><circle cx="176" cy="320" fill="#fff" r="8"/><path d="m368 320c0 4.262-5.609 8-12 8s-12-3.738-12-8h-16c0 13.234 12.563 24 28 24s28-10.766 28-24z" fill="#eceaec"/><circle cx="336" cy="320" fill="#fff" r="8"/><circle cx="376" cy="320" fill="#fff" r="8"/></g></svg>