<?xml version="1.0" encoding="iso-8859-1"?>
<!-- Generator: Adobe Illustrator 19.0.0, SVG Export Plug-In . SVG Version: 6.00 Build 0)  -->
<svg version="1.1" id="Capa_1" xmlns="http://www.w3.org/2000/svg" xmlns:xlink="http://www.w3.org/1999/xlink" x="0px" y="0px"
	 viewBox="0 0 511.999 511.999" style="enable-background:new 0 0 511.999 511.999;" xml:space="preserve">
<path style="fill:#FFA834;" d="M145.9,14.783L4.271,97.506v276.666l118.207,68.247l141.629-82.722V83.031L145.9,14.783z"/>
<g style="enable-background:new    ;">
	<path style="fill:#E0E0E2;" d="M462.73,197.106v245.527c-0.004,1.491-1.68,2.98-3.639,4.118c-3.94,2.289-10.347,2.289-14.316-0.001
		c-1.996-1.152-2.296-2.664-2.291-4.174V197.048c-0.004,1.51,0.993,3.022,2.987,4.174c3.967,2.29,10.376,2.29,14.316,0.001
		C461.746,200.086,462.726,198.597,462.73,197.106z"/>
	<path style="fill:#E0E0E2;" d="M459.741,192.93c3.967,2.29,3.988,6.003,0.047,8.293c-3.94,2.289-10.348,2.289-14.316-0.001
		c-3.965-2.289-3.986-6.002-0.047-8.291C449.367,190.641,455.775,190.641,459.741,192.93z"/>
</g>
<g style="enable-background:new    ;">
	<path style="fill:#E0E0E2;" d="M352.893,260.638v245.527c-0.004,1.491-1.68,2.98-3.638,4.118
		c-3.94,2.289-10.348,2.289-14.316-0.001c-1.996-1.152-2.296-2.664-2.291-4.174V260.58c-0.004,1.51,0.993,3.022,2.988,4.174
		c3.967,2.29,10.376,2.29,14.316,0.001C351.909,263.618,352.889,262.129,352.893,260.638z"/>
	<path style="fill:#E0E0E2;" d="M349.904,256.462c3.967,2.29,3.988,6.003,0.047,8.293c-3.94,2.289-10.347,2.289-14.316-0.001
		c-3.965-2.289-3.986-6.002-0.047-8.291C339.53,254.173,345.938,254.173,349.904,256.462z"/>
</g>
<polygon style="fill:#FEC377;" points="4.271,97.506 145.9,14.783 264.106,83.031 122.478,165.753 "/>
<path style="fill:#FFB657;" d="M4.271,97.506l118.207,68.247v276.666L4.271,374.173V97.506z M115.662,323.726l0.132-46.575
	L10.302,216.245l-0.133,46.575L115.662,323.726 M115.968,215.966l0.132-46.575L10.607,108.485l-0.132,46.575L115.968,215.966
	 M115.814,269.845l0.132-46.575L10.455,162.364l-0.132,46.575L115.814,269.845 M115.509,377.605l0.132-46.575L10.15,270.124
	l-0.132,46.575L115.509,377.605 M115.357,431.489l0.132-46.575L9.996,324.008l-0.132,46.575L115.357,431.489"/>
<polygon style="fill:#FFA834;" points="122.478,165.753 264.106,83.031 264.106,359.697 122.478,442.419 "/>
<g>
	<path style="fill:#FEC377;" d="M117.303,326.578L8.518,263.77l0.142-50.378L117.446,276.2L117.303,326.578z"/>
	<path style="fill:#FEC377;" d="M117.609,218.818L8.824,156.01l0.142-50.378l108.786,62.808L117.609,218.818z"/>
</g>
<path style="fill:#D07400;" d="M78.097,154.865c-0.007,2.556-3.245,2.823-7.196,0.592l-15.866-8.957
	c-3.951-2.23-7.177-6.146-7.17-8.703s3.245-2.823,7.196-0.592l15.866,8.957C74.878,148.392,78.105,152.308,78.097,154.865z"/>
<g>
	<path style="fill:#FEC377;" d="M117.456,272.698L8.67,209.89l0.142-50.377l108.786,62.808L117.456,272.698z"/>
	<path style="fill:#FEC377;" d="M117.151,380.458L8.365,317.65l0.142-50.377l108.786,62.808L117.151,380.458z"/>
	<path style="fill:#FEC377;" d="M116.998,434.341L8.212,371.533l0.142-50.378l108.786,62.808L116.998,434.341z"/>
</g>
<g>
	<path style="fill:#D07400;" d="M78.097,208.843c-0.007,2.556-3.245,2.823-7.196,0.592l-15.866-8.957
		c-3.951-2.23-7.177-6.146-7.17-8.703c0.007-2.557,3.245-2.823,7.196-0.592l15.866,8.957
		C74.878,202.371,78.105,206.287,78.097,208.843z"/>
	<path style="fill:#D07400;" d="M78.097,262.822c-0.007,2.556-3.245,2.823-7.196,0.592l-15.866-8.957
		c-3.951-2.23-7.177-6.146-7.17-8.703s3.245-2.823,7.196-0.592l15.866,8.957C74.878,256.35,78.105,260.266,78.097,262.822z"/>
	<path style="fill:#D07400;" d="M78.097,318.072c-0.007,2.556-3.245,2.823-7.196,0.592l-15.866-8.957
		c-3.951-2.23-7.177-6.146-7.17-8.703c0.007-2.557,3.245-2.823,7.196-0.592l15.866,8.957
		C74.878,311.6,78.105,315.516,78.097,318.072z"/>
	<path style="fill:#D07400;" d="M78.097,370.779c-0.007,2.556-3.245,2.823-7.196,0.592l-15.866-8.957
		c-3.951-2.23-7.177-6.146-7.17-8.703s3.245-2.823,7.196-0.592l15.866,8.957C74.878,364.306,78.105,368.222,78.097,370.779z"/>
</g>
<g>
	<polygon style="fill:#FEC377;" points="151.834,0 4.271,85.792 4.271,97.429 360.165,303.004 507.728,217.211 507.728,205.574 	"/>
	<polygon style="fill:#FEC377;" points="507.728,205.574 360.165,291.367 4.271,85.792 151.834,0 	"/>
</g>
<polygon style="fill:#FFB657;" points="4.271,85.792 4.271,97.429 360.165,303.004 360.165,291.367 "/>
<polygon style="fill:#FFA834;" points="507.728,205.574 507.728,217.211 360.165,303.004 360.165,291.367 "/>
<g>
</g>
<g>
</g>
<g>
</g>
<g>
</g>
<g>
</g>
<g>
</g>
<g>
</g>
<g>
</g>
<g>
</g>
<g>
</g>
<g>
</g>
<g>
</g>
<g>
</g>
<g>
</g>
<g>
</g>
</svg>
