<svg id="Capa_1" enable-background="new 0 0 512 512" height="512" viewBox="0 0 512 512" width="512" xmlns="http://www.w3.org/2000/svg"><g><path d="m480.157 324.646h-448.314v-185.947c0-18.801 15.241-34.043 34.043-34.043h380.23c18.801 0 34.043 15.241 34.043 34.043v185.947z" fill="#fe6c55"/><path d="m480.161 139.648v184.997h-20.559v-184.997c0-19.325-15.676-34.991-35.001-34.991h20.559c19.325 0 35.001 15.665 35.001 34.991z" fill="#fd544c"/><g><g><path d="m45.833 407.344c-.561 0-1.131-.062-1.702-.19-4.154-.936-6.763-5.062-5.826-9.216l7.741-34.349c.936-4.153 5.063-6.761 9.215-5.826 4.154.936 6.763 5.062 5.826 9.216l-7.741 34.349c-.806 3.582-3.988 6.016-7.513 6.016z" fill="#acacac"/></g><g><path d="m466.167 407.344c-3.525 0-6.707-2.433-7.514-6.016l-7.741-34.349c-.937-4.154 1.672-8.28 5.826-9.216 4.152-.935 8.28 1.672 9.215 5.826l7.741 34.349c.937 4.154-1.672 8.28-5.826 9.216-.57.128-1.14.19-1.701.19z" fill="#acacac"/></g></g><g fill="#ea3d3d"><g><circle cx="84.395" cy="168.69" r="7.709"/><circle cx="141.592" cy="168.69" r="7.709"/><circle cx="198.789" cy="168.69" r="7.709"/><circle cx="255.986" cy="168.69" r="7.709"/><circle cx="313.182" cy="168.69" r="7.709"/><circle cx="370.379" cy="168.69" r="7.709"/><circle cx="427.605" cy="168.69" r="7.709"/></g><g><circle cx="84.395" cy="219.268" r="7.709"/><circle cx="141.592" cy="219.268" r="7.709"/><circle cx="198.789" cy="219.268" r="7.709"/><circle cx="255.986" cy="219.268" r="7.709"/><circle cx="313.182" cy="219.268" r="7.709"/><circle cx="370.379" cy="219.268" r="7.709"/><circle cx="427.605" cy="219.268" r="7.709"/></g></g><g fill="#fed2a4"><path d="m256 316.803-103.06 7.843-103.06-7.843v-24.724c0-9.18 7.442-16.621 16.621-16.621h172.878c9.18 0 16.621 7.442 16.621 16.621z"/><path d="m462.12 316.803-99.451 10.403-106.669-10.403v-24.724c0-9.18 7.442-16.621 16.621-16.621h172.878c9.18 0 16.621 7.442 16.621 16.621z"/></g><g fill="#ffbd86"><path d="m256 292.542v24.259h-20.559v-24.259c0-9.436-7.648-17.084-17.084-17.084h20.559c2.416 0 4.718.504 6.805 1.419 6.054 2.621 10.279 8.644 10.279 15.665z"/><path d="m462.121 292.542v24.259h-20.559v-24.259c0-9.436-7.648-17.084-17.084-17.084h20.559c9.436 0 17.084 7.648 17.084 17.084z"/></g><path d="m487.679 267.709c-11.141-.015-20.869 7.535-23.621 18.33l-7.75 30.41h-400.616l-7.75-30.41c-2.751-10.795-12.48-18.345-23.62-18.33-15.913.021-27.526 15.055-23.528 30.458l15.696 60.463c1.017 3.918 4.553 6.653 8.601 6.653h461.819c4.048 0 7.584-2.735 8.601-6.653l15.696-60.463c3.998-15.402-7.615-30.436-23.528-30.458z" fill="#fe6c55"/><path d="m511.205 298.165-15.697 60.463c-1.018 3.916-4.554 6.651-8.604 6.651h-461.809c-4.05 0-7.586-2.734-8.604-6.651l-3.557-13.713h455.467c4.05 0 7.586-2.734 8.604-6.651l15.697-60.463c.833-3.207.987-6.394.565-9.436 12.911 3.022 21.453 16.272 17.938 29.8z" fill="#fd544c"/></g></svg>