<svg height="512pt" viewBox="0 0 512 512.00039" width="512pt" xmlns="http://www.w3.org/2000/svg"><path d="m17.65625 406.070312h476.6875v70.621094h-476.6875zm0 0" fill="#b36435"/><path d="m17.65625 441.378906h476.6875v35.3125h-476.6875zm0 0" fill="#aa5f32"/><path d="m406.070312 335.449219h44.136719c14.625 0 26.484375 11.855469 26.484375 26.480469v44.140624h-441.382812v-44.140624c0-14.625 11.859375-26.480469 26.484375-26.480469zm0 0" fill="#99d8aa"/><path d="m406.070312 406.070312h-150.070312v-79.449218c0-14.625 11.855469-26.484375 26.484375-26.484375h97.101563c14.625 0 26.484374 11.859375 26.484374 26.484375zm0 0" fill="#ebebeb"/><path d="m406.070312 88.277344h44.136719c14.625 0 26.484375 11.855468 26.484375 26.480468v44.140626h-441.382812v-44.140626c0-14.625 11.859375-26.480468 26.484375-26.480468zm0 0" fill="#99d8aa"/><path d="m150.070312 88.277344h-52.964843c-14.628907 0-26.484375-11.859375-26.484375-26.484375s11.855468-26.484375 26.484375-26.484375h52.964843c14.625 0 26.480469 11.859375 26.480469 26.484375s-11.855469 26.484375-26.480469 26.484375zm0 0" fill="#85bc94"/><path d="m150.070312 335.449219h-52.964843c-14.628907 0-26.484375-11.859375-26.484375-26.484375s11.855468-26.480469 26.484375-26.480469h52.964843c14.625 0 26.480469 11.855469 26.480469 26.480469s-11.855469 26.484375-26.480469 26.484375zm0 0" fill="#85bc94"/><path d="m406.070312 158.898438h-150.070312v-88.277344c0-14.625 11.855469-26.484375 26.484375-26.484375h97.101563c14.625 0 26.484374 11.859375 26.484374 26.484375zm0 0" fill="#ebebeb"/><path d="m17.65625 158.898438h476.6875v70.617187h-476.6875zm0 0" fill="#b36435"/><path d="m17.65625 194.207031h476.6875v35.308594h-476.6875zm0 0" fill="#aa5f32"/><g fill="#b9b9b9"><path d="m441.378906 273.65625h-114.757812c-4.875 0-8.828125-3.953125-8.828125-8.828125s3.953125-8.828125 8.828125-8.828125h114.757812c4.875 0 8.828125 3.953125 8.828125 8.828125s-3.953125 8.828125-8.828125 8.828125zm0 0"/><path d="m441.378906 238.34375h-114.757812c-4.875 0-8.828125-3.949219-8.828125-8.828125 0-4.875 3.953125-8.824219 8.828125-8.824219h114.757812c4.875 0 8.828125 3.949219 8.828125 8.824219 0 4.878906-3.953125 8.828125-8.828125 8.828125zm0 0"/><path d="m441.378906 203.035156h-114.757812c-4.875 0-8.828125-3.953125-8.828125-8.828125s3.953125-8.828125 8.828125-8.828125h114.757812c4.875 0 8.828125 3.953125 8.828125 8.828125s-3.953125 8.828125-8.828125 8.828125zm0 0"/><path d="m441.378906 308.964844h-114.757812c-4.875 0-8.828125-3.953125-8.828125-8.828125s3.953125-8.824219 8.828125-8.824219h114.757812c4.875 0 8.828125 3.949219 8.828125 8.824219s-3.953125 8.828125-8.828125 8.828125zm0 0"/><path d="m441.378906 379.585938h-114.757812c-4.875 0-8.828125-3.953126-8.828125-8.828126s3.953125-8.828124 8.828125-8.828124h114.757812c4.875 0 8.828125 3.953124 8.828125 8.828124s-3.953125 8.828126-8.828125 8.828126zm0 0"/><path d="m441.378906 414.898438h-114.757812c-4.875 0-8.828125-3.953126-8.828125-8.828126s3.953125-8.828124 8.828125-8.828124h114.757812c4.875 0 8.828125 3.953124 8.828125 8.828124s-3.953125 8.828126-8.828125 8.828126zm0 0"/><path d="m441.378906 344.277344h-114.757812c-4.875 0-8.828125-3.953125-8.828125-8.828125s3.953125-8.828125 8.828125-8.828125h114.757812c4.875 0 8.828125 3.953125 8.828125 8.828125s-3.953125 8.828125-8.828125 8.828125zm0 0"/><path d="m441.378906 450.207031h-114.757812c-4.875 0-8.828125-3.953125-8.828125-8.828125s3.953125-8.828125 8.828125-8.828125h114.757812c4.875 0 8.828125 3.953125 8.828125 8.828125s-3.953125 8.828125-8.828125 8.828125zm0 0"/><path d="m441.378906 485.515625h-114.757812c-4.875 0-8.828125-3.949219-8.828125-8.824219s3.953125-8.828125 8.828125-8.828125h114.757812c4.875 0 8.828125 3.953125 8.828125 8.828125s-3.953125 8.824219-8.828125 8.824219zm0 0"/></g><path d="m17.65625 0c-9.75 0-17.65625 7.90625-17.65625 17.65625v494.34375h26.484375c4.875 0 8.824219-3.953125 8.824219-8.828125v-485.515625c0-9.75-7.902344-17.65625-17.652344-17.65625zm0 0" fill="#b36435"/><path d="m494.34375 0c-9.75 0-17.652344 7.90625-17.652344 17.65625v485.515625c0 4.875 3.949219 8.828125 8.824219 8.828125h26.484375v-494.34375c0-9.75-7.902344-17.65625-17.65625-17.65625zm0 0" fill="#b36435"/><path d="m326.621094 512c-4.875 0-8.828125-3.953125-8.828125-8.828125v-370.757813c0-4.875 3.953125-8.828124 8.828125-8.828124s8.828125 3.953124 8.828125 8.828124v370.757813c0 4.875-3.953125 8.828125-8.828125 8.828125zm0 0" fill="#cdcdcd"/><path d="m441.378906 512c-4.875 0-8.828125-3.953125-8.828125-8.828125v-379.585937c0-4.875 3.953125-8.828126 8.828125-8.828126s8.828125 3.953126 8.828125 8.828126v379.585937c0 4.875-3.953125 8.828125-8.828125 8.828125zm0 0" fill="#cdcdcd"/></svg>