<svg id="Capa_1" enable-background="new 0 0 512 512" height="512" viewBox="0 0 512 512" width="512" xmlns="http://www.w3.org/2000/svg"><g><g><path d="m328.658 179.566c-8.284 0-15-6.716-15-15v-45.554c0-8.284 6.716-15 15-15s15 6.716 15 15v45.554c0 8.285-6.716 15-15 15z" fill="#e9e4f0"/><g><g><path d="m256 234.864c-6.349 0-12.36-1.448-17.721-4.031-7.112-3.427-12.758-8.816-16.601-15.278-6.56-11.03-7.024-24.66-1.951-36.449l22.658-52.651h27.231l22.659 52.651c5.073 11.788 4.609 25.419-1.951 36.449-3.843 6.461-9.489 11.851-16.601 15.278-5.363 2.583-11.374 4.031-17.723 4.031z" fill="#fbf4f4"/><path d="m292.274 179.107-22.658-52.651h-13.616v108.409c6.349 0 12.36-1.448 17.721-4.031 7.113-3.427 12.758-8.816 16.602-15.278 6.56-11.031 7.024-24.661 1.951-36.449z" fill="#e9e4f0"/></g><g><g><path d="m256 113.566-98.089-15.579 9.079-84.588c.819-7.621 7.25-13.399 14.915-13.399h148.19c7.665 0 14.096 5.778 14.914 13.399l9.079 84.588z" fill="#799af8"/><path d="m354.089 97.987-9.079-84.588c-.819-7.621-7.25-13.399-14.915-13.399h-74.095v113.566z" fill="#455bf5"/></g><g><path d="m156.581 110.387c-.952 8.867 5.997 16.601 14.914 16.601h169.01c8.918 0 15.866-7.734 14.914-16.601l-1.331-12.399h-196.177z" fill="#455bf5"/><path d="m355.419 110.387-1.331-12.399h-98.088v29h84.505c8.918-.001 15.866-7.735 14.914-16.601z" fill="#4a3cdc"/></g></g></g></g><g><g><g><path d="m371 512c-8.284 0-15-6.716-15-15v-29.288c0-8.284 6.716-15 15-15s15 6.716 15 15v29.288c0 8.284-6.716 15-15 15z" fill="#472d20"/><path d="m141 512c-8.284 0-15-6.716-15-15v-29.288c0-8.284 6.716-15 15-15s15 6.716 15 15v29.288c0 8.284-6.716 15-15 15z" fill="#714343"/></g><g><g><g><path d="m79.437 369.134h353.127v98.82c0 8.284-6.716 15-15 15h-323.127c-8.284 0-15-6.716-15-15z" fill="#8e5f4f"/><path d="m256 369.134v113.82h161.564c8.284 0 15-6.716 15-15v-98.82z" fill="#714343"/></g><g><path d="m256.02 440.716c-8.284 0-15.04-6.716-15.04-15s6.676-15 14.96-15h.08c8.284 0 15 6.716 15 15s-6.716 15-15 15z" fill="#714343"/><path d="m256.02 410.716h-.02v29.999c.007 0 .013.001.02.001 8.284 0 15-6.716 15-15s-6.716-15-15-15z" fill="#472d20"/></g></g><g><g><path d="m79.437 253.685h353.127v115.449h-353.127z" fill="#b68661"/><path d="m256 253.685h176.564v115.449h-176.564z" fill="#8e5f4f"/></g><g><path d="m256.02 326.446c-8.284 0-15.04-6.716-15.04-15s6.676-15 14.96-15h.08c8.284 0 15 6.716 15 15s-6.716 15-15 15z" fill="#714343"/><path d="m256.02 296.446h-.02v29.999c.007 0 .013.001.02.001 8.284 0 15-6.716 15-15s-6.716-15-15-15z" fill="#472d20"/></g></g></g></g><g><path d="m424.27 256.186h-336.54c-8.284 0-15-6.716-15-15s6.716-15 15-15h336.54c8.284 0 15 6.716 15 15s-6.716 15-15 15z" fill="#8e5f4f"/><path d="m424.27 226.186h-168.27v30h168.27c8.284 0 15-6.716 15-15 0-8.285-6.716-15-15-15z" fill="#714343"/></g></g></g></svg>