<?xml version="1.0" encoding="iso-8859-1"?>
<!-- Generator: Adobe Illustrator 19.0.0, SVG Export Plug-In . SVG Version: 6.00 Build 0)  -->
<svg version="1.1" id="Capa_1" xmlns="http://www.w3.org/2000/svg" xmlns:xlink="http://www.w3.org/1999/xlink" x="0px" y="0px"
	 viewBox="0 0 512 512" style="enable-background:new 0 0 512 512;" xml:space="preserve">
<g>
	<g>
		<path style="fill:#805333;" d="M17.655,459.034h52.966v44.138c0,4.875-3.952,8.828-8.828,8.828h-35.31
			c-4.875,0-8.828-3.952-8.828-8.828V459.034z"/>
		<path style="fill:#805333;" d="M441.379,459.034h52.966v44.138c0,4.875-3.952,8.828-8.828,8.828h-35.31
			c-4.875,0-8.828-3.952-8.828-8.828V459.034z"/>
	</g>
	<path style="fill:#84B5CB;" d="M97.103,256H17.655V88.276C17.673,39.53,57.185,0.018,105.931,0h300.138
		c48.746,0.018,88.258,39.53,88.276,88.276V256H97.103z"/>
	<path style="fill:#41767F;" d="M52.966,238.345V88.276c0.023-29.242,23.723-52.942,52.966-52.966h300.138
		c29.242,0.023,52.942,23.723,52.966,52.966v150.069"/>
	<path style="fill:#67B9CC;" d="M79.448,238.345H17.655C7.916,238.373,0.029,246.261,0,256v203.741
		c0.029,9.739,7.916,17.627,17.655,17.655h476.69c9.739-0.029,17.627-7.916,17.655-17.655V256
		c-0.07-9.722-7.934-17.585-17.655-17.655H79.448z"/>
	<g>
		<path style="fill:#ECF0F1;" d="M300.138,35.31v44.138c0,24.377-19.761,44.138-44.138,44.138s-44.138-19.761-44.138-44.138V35.31
			h17.655v44.138c0,14.626,11.857,26.483,26.483,26.483c14.626,0,26.483-11.857,26.483-26.483V35.31H300.138z"/>
		<circle style="fill:#ECF0F1;" cx="256" cy="291.31" r="17.655"/>
	</g>
	<g>
		<path style="fill:#802F34;" d="M344.276,388.414c-2.341,0.001-4.587-0.929-6.243-2.585c-1.656-1.656-2.585-3.901-2.585-6.243
			v-26.483c0-4.875,3.952-8.828,8.828-8.828s8.828,3.952,8.828,8.828v26.483c0.001,2.341-0.929,4.587-2.585,6.243
			C348.863,387.485,346.617,388.414,344.276,388.414z"/>
		<path style="fill:#802F34;" d="M370.759,388.414c-2.341,0.001-4.587-0.929-6.243-2.585c-1.656-1.656-2.585-3.901-2.585-6.243
			v-26.483c0-4.875,3.952-8.828,8.828-8.828s8.828,3.952,8.828,8.828v26.483c0.001,2.341-0.929,4.587-2.585,6.243
			C375.346,387.485,373.1,388.414,370.759,388.414z"/>
		<path style="fill:#802F34;" d="M397.241,388.414c-2.341,0.001-4.587-0.929-6.243-2.585c-1.656-1.656-2.585-3.901-2.585-6.243
			v-26.483c0-4.875,3.952-8.828,8.828-8.828c4.875,0,8.828,3.952,8.828,8.828v26.483c0.001,2.341-0.929,4.587-2.585,6.243
			C401.828,387.485,399.583,388.414,397.241,388.414z"/>
	</g>
	<path style="fill:#E4C05C;" d="M97.103,355.046V229.517c0.022-14.617,11.866-26.461,26.483-26.483h26.483
		c14.626,0,26.483,11.857,26.483,26.483v8.828h-17.655v132.414c0,4.875-3.952,8.828-8.828,8.828h-44.138
		c-4.875,0-8.828-3.952-8.828-8.828V355.046"/>
	<g>
		<polygon style="fill:#B19046;" points="158.897,298.196 158.897,318.676 97.103,355.046 97.103,334.566 		"/>
		<path style="fill:#B19046;" d="M105.931,379.586h44.138v26.483c0,4.875-3.952,8.828-8.828,8.828h-26.483
			c-4.875,0-8.828-3.952-8.828-8.828V379.586z"/>
	</g>
	<path style="fill:#CC4B4C;" d="M406.069,238.345v114.759h-70.621V238.345c0.028-9.739,7.916-17.627,17.655-17.655h35.31
		C398.153,220.718,406.04,228.606,406.069,238.345z"/>
	<rect x="335.448" y="308.966" style="fill:#E4C05C;" width="70.621" height="17.655"/>
</g>
<g>
</g>
<g>
</g>
<g>
</g>
<g>
</g>
<g>
</g>
<g>
</g>
<g>
</g>
<g>
</g>
<g>
</g>
<g>
</g>
<g>
</g>
<g>
</g>
<g>
</g>
<g>
</g>
<g>
</g>
</svg>
