<?xml version="1.0" encoding="iso-8859-1"?>
<!-- Generator: Adobe Illustrator 19.0.0, SVG Export Plug-In . SVG Version: 6.00 Build 0)  -->
<svg version="1.1" id="Capa_1" xmlns="http://www.w3.org/2000/svg" xmlns:xlink="http://www.w3.org/1999/xlink" x="0px" y="0px"
	 viewBox="0 0 512.001 512.001" style="enable-background:new 0 0 512.001 512.001;" xml:space="preserve">
<path style="fill:#FEC377;" d="M389.197,258.371L389.197,258.371L389.197,258.371l-18.587,10.731v0.002l-23.085-13.415
	l-62.22,36.076v-91.971l-18.587,10.732v0.002l-23.085-13.415l-112.214,65.063v177.833l23.085,13.415l19.092-10.732l-0.158-55.737
	l-0.045-15.685l-0.189-66.903l62.107,35.664v158.554L258.396,512l19.092-10.732l-0.336-118.712l8.153-4.926v-37.603l62.807-36.262
	l0.237,129.759l23.085,13.415l17.763-10.732V282.687l0,0v-24.317H389.197z M244.248,245.172l0.165,58.353l10.293,5.982
	l-12.303,7.133l-61.136-35.106L244.248,245.172z"/>
<g style="enable-background:new    ;">
	<g>
		<polygon style="fill:#FEC377;" points="267.543,388.362 244.616,374.946 244.458,319.209 267.543,332.625 		"/>
		<polygon style="fill:#FEC377;" points="267.498,316.94 244.414,303.525 244.173,218.473 267.257,231.888 		"/>
		<polygon style="fill:#FEC377;" points="154.505,275.592 131.42,262.176 243.634,197.114 266.718,210.529 		"/>
		<polygon style="fill:#FEC377;" points="154.505,453.424 131.42,440.009 131.42,262.176 154.505,275.592 		"/>
	</g>
	<path style="fill:#FF9911;" d="M267.257,231.888l-94.103,54.331l0.241,85.052l0.045,15.685l0.158,55.737l-19.092,10.732V275.592
		l112.214-65.063v-0.002l18.587-10.732V377.63l-17.763,10.732L267.257,231.888z"/>
</g>
<g style="enable-background:new    ;">
	<g>
		<polygon style="fill:#FEC377;" points="371.434,446.938 348.35,433.523 348.064,277.049 371.149,290.465 		"/>
		<polygon style="fill:#FEC377;" points="258.397,334.168 235.312,320.753 347.525,255.69 370.61,269.105 		"/>
		<polygon style="fill:#FEC377;" points="258.397,512.001 235.312,498.585 235.312,320.753 258.397,334.168 		"/>
	</g>
	<path style="fill:#FFA834;" d="M371.149,290.465l-94.103,54.331l0.444,156.473l-19.092,10.732V334.168l112.214-65.063v-0.002
		l18.587-10.732v177.835l-17.763,10.732L371.149,290.465z"/>
</g>
<polygon style="fill:#FFA834;" points="370.61,293.419 389.197,282.687 389.197,258.371 370.61,269.103 "/>
<polygon style="fill:#FEC377;" points="154.629,266.237 154.629,293.701 247.316,346.925 247.316,319.461 "/>
<path style="fill:#317E46;" d="M392.883,263.734l-0.492-173.48c-0.013-4.55-1.625-7.747-4.22-9.242
	c0.007,0.004,0.017,0.007,0.024,0.011L250.442,0.97c-2.613-1.518-6.233-1.305-10.229,1.002
	c-7.938,4.583-14.358,15.701-14.332,24.832l0.463,163.45c0.016,5.544-3.882,12.287-8.7,15.068l-83.449,48.18
	c-8.367,4.832-15.126,16.545-15.099,26.151c0.014,4.778,1.7,8.142,4.422,9.724l137.752,80.053c-0.174-0.101-0.331-0.23-0.497-0.346
	c2.783,1.946,6.798,1.875,11.272-0.708l92.176-53.218l4.881-2.818c13.186-7.613,23.841-26.069,23.798-41.229L392.883,263.734z"/>
<path style="fill:#4DBA69;" d="M226.345,190.254c0.016,5.544-3.882,12.287-8.7,15.068l-83.449,48.18
	c-8.367,4.832-15.126,16.545-15.099,26.151c0.014,4.778,1.701,8.142,4.422,9.723l137.752,80.053
	c-2.721-1.581-4.408-4.944-4.422-9.723c-0.027-9.607,6.731-21.321,15.099-26.151l83.449-48.18c4.818-2.781,8.715-9.524,8.7-15.068
	L226.345,190.254z"/>
<path style="fill:#40A559;" d="M250.442,0.97c-2.613-1.519-6.233-1.305-10.229,1.002c-7.938,4.583-14.358,15.701-14.332,24.831
	l0.463,163.45l137.752,80.053l-0.463-163.45c-0.026-9.129,6.394-20.248,14.332-24.831c3.996-2.307,7.615-2.521,10.229-1.002
	L250.442,0.97z"/>
<path style="fill:#317E46;" d="M377.965,82.026c7.945-4.587,14.4-0.901,14.426,8.228l0.492,173.48l0.021,7.377
	c0.043,15.16-10.613,33.616-23.798,41.228l-4.881,2.818l-92.176,53.218c-8.367,4.832-15.17,0.947-15.197-8.668
	c-0.027-9.608,6.731-21.321,15.099-26.151l83.449-48.18c4.818-2.781,8.715-9.524,8.7-15.068l-0.463-163.45
	C363.608,97.729,370.027,86.609,377.965,82.026z"/>
<g>
</g>
<g>
</g>
<g>
</g>
<g>
</g>
<g>
</g>
<g>
</g>
<g>
</g>
<g>
</g>
<g>
</g>
<g>
</g>
<g>
</g>
<g>
</g>
<g>
</g>
<g>
</g>
<g>
</g>
</svg>
