<svg height="512pt" viewBox="-80 0 512 512.001" width="512pt" xmlns="http://www.w3.org/2000/svg"><path d="m165.074219 512h21.023437c5.691406 0 10.300782-4.613281 10.300782-10.300781v-366.414063h-41.625v366.414063c0 5.6875 4.613281 10.300781 10.300781 10.300781zm0 0" fill="#c9885b"/><path d="m154.773438 135.285156h41.625v18.730469h-41.625zm0 0" fill="#c47e4e"/><path d="m49.667969 302.828125h251.835937v41.625h-251.835937zm0 0" fill="#d19a75"/><path d="m49.667969 327.804688h251.835937v16.648437h-251.835937zm0 0" fill="#c47e4e"/><path d="m300.464844 83.253906h-249.757813c-11.492187 0-20.8125-9.320312-20.8125-20.816406v-41.625c0-11.496094 9.320313-20.8125 20.8125-20.8125h249.757813c11.496094 0 20.8125 9.316406 20.8125 20.8125v41.625c0 11.496094-9.316406 20.816406-20.8125 20.816406zm0 0" fill="#f76c57"/><path d="m300.464844 0h-20.8125c11.496094 0 20.8125 9.316406 20.8125 20.8125v41.625c0 11.496094-9.316406 20.816406-20.8125 20.816406h20.8125c11.496094 0 20.8125-9.320312 20.8125-20.816406v-41.625c0-11.496094-9.316406-20.8125-20.8125-20.8125zm0 0" fill="#e5554e"/><path d="m175.585938 135.285156h80.441406c5.207031 0 9.597656 3.890625 10.226562 9.0625l43.519532 358.59375c.625 5.171875 5.015624 9.058594 10.226562 9.058594h20.871094c6.179687 0 10.972656-5.40625 10.226562-11.542969l-50.632812-417.203125h-249.757813l-50.628906 417.203125c-.746094 6.136719 4.042969 11.542969 10.226563 11.542969h20.871093c5.210938 0 9.597657-3.890625 10.226563-9.0625l43.519531-358.59375c.628906-5.171875 5.015625-9.058594 10.226563-9.058594zm0 0" fill="#d19a75"/><g fill="#c9885b"><path d="m41.402344 502.9375 43.519531-358.59375c.628906-5.171875 5.015625-9.058594 10.226563-9.058594h-14.953126c-7.367187 0-13.574218 5.5-14.460937 12.8125l-44.164063 363.902344h9.605469c5.210938 0 9.597657-3.890625 10.226563-9.0625zm0 0"/><path d="m351.097656 500.457031-50.632812-417.203125h-249.757813l-2.523437 20.8125h226.855468c5.261719 0 9.695313 3.925782 10.332032 9.152344l48.394531 398.78125h7.105469c6.179687 0 10.96875-5.40625 10.226562-11.542969zm0 0"/></g></svg>