<svg id="Capa_1" enable-background="new 0 0 512 512" height="512" viewBox="0 0 512 512" width="512" xmlns="http://www.w3.org/2000/svg"><g><path d="m153.495 299.373v114.941c0 8.284 6.716 15 15 15h87.505l25.001-72.471-25.001-72.47h-87.505c-8.285 0-15 6.716-15 15z" fill="#ce8b5d"/><path d="m343.506 429.314c8.284 0 15-6.716 15-15v-114.941c0-8.284-6.716-15-15-15h-87.506v144.941z" fill="#c27a48"/><g><path d="m72.846 511.766c-8.284 0-15-6.716-15-15v-25.609c0-8.284 6.716-15 15-15s15 6.716 15 15v25.609c0 8.285-6.716 15-15 15z" fill="#c27a48"/></g><g><path d="m439.154 511.766c-8.284 0-15-6.716-15-15v-25.609c0-8.284 6.716-15 15-15s15 6.716 15 15v25.609c0 8.285-6.716 15-15 15z" fill="#aa6031"/></g><g><path d="m264.34 57.331c-3.106 0-6.238-.96-8.924-2.953-6.654-4.935-8.047-14.33-3.113-20.984l20.097-27.095c4.935-6.653 14.328-8.047 20.983-3.113 6.654 4.935 8.048 14.33 3.112 20.984l-20.095 27.096c-2.943 3.968-7.472 6.065-12.06 6.065z" fill="#bcbcdd"/></g><path d="m348.506 308.873h133.494v64.623h-133.494z" fill="#864d3a"/><path d="m348.506 393.614h133.494v64.623h-133.494z" fill="#773e2f"/><g><path d="m415.253 425.266c-8.284 0-15-6.716-15-15v-24.843c0-8.284 6.716-15 15-15s15 6.716 15 15v24.843c0 8.284-6.716 15-15 15z" fill="#c27a48"/></g><g><path d="m415.253 338.556c-8.284 0-15-6.716-15-15v-24.843c0-8.284 6.716-15 15-15s15 6.716 15 15v24.843c0 8.284-6.716 15-15 15z" fill="#c27a48"/></g><g><path d="m487 485.498h-143.494c-8.284 0-15-6.716-15-15v-85.075c0-8.284 6.716-15 15-15h143.494c8.284 0 15 6.716 15 15v85.075c0 8.284-6.716 15-15 15zm-128.494-30h113.494v-55.075h-113.494z" fill="#864d3a"/></g><g><path d="m146.501 252.608c-1.6 0-3.226-.257-4.825-.801-7.844-2.664-12.043-11.183-9.379-19.027l20.298-59.769c2.664-7.844 11.182-12.046 19.027-9.379 7.844 2.664 12.043 11.183 9.379 19.027l-20.298 59.769c-2.121 6.245-7.954 10.18-14.202 10.18z" fill="#cfcfe6"/></g><g><path d="m365.499 252.608c-6.249 0-12.081-3.935-14.202-10.181l-20.297-59.768c-2.664-7.844 1.535-16.363 9.38-19.026 7.848-2.667 16.362 1.536 19.026 9.38l20.297 59.769c2.664 7.844-1.535 16.363-9.38 19.026-1.598.542-3.225.8-4.824.8z" fill="#bcbcdd"/></g><g><path d="m247.693 57.331c-4.588 0-9.117-2.097-12.06-6.065l-20.096-27.096c-4.935-6.654-3.541-16.049 3.113-20.984 6.655-4.934 16.048-3.542 20.984 3.113l20.095 27.096c4.936 6.654 3.542 16.049-3.112 20.984-2.686 1.991-5.818 2.952-8.924 2.952z" fill="#cfcfe6"/></g><path d="m502 383.655v-84.941c0-8.284-6.716-15-15-15h-143.494c-8.284 0-15 6.716-15 15v84.941c0 .599.045 1.188.113 1.769h173.268c.068-.582.113-1.17.113-1.769zm-30-15h-113.494v-55.051l57.703-10.891 55.791 10.891z" fill="#aa6031"/><path d="m28.307 308.873h133.494v64.623h-133.494z" fill="#aa6031"/><path d="m28.307 393.614h133.494v64.623h-133.494z" fill="#864d3a"/><g><path d="m95.054 425.266c-8.284 0-15-6.716-15-15v-24.843c0-8.284 6.716-15 15-15s15 6.716 15 15v24.843c0 8.284-6.716 15-15 15z" fill="#ce8b5d"/></g><g><path d="m95.054 338.556c-8.284 0-15-6.716-15-15v-24.843c0-8.284 6.716-15 15-15s15 6.716 15 15v24.843c0 8.284-6.716 15-15 15z" fill="#ce8b5d"/></g><g><path d="m166.801 485.498h-143.494c-8.284 0-15-6.716-15-15v-85.075c0-8.284 6.716-15 15-15h143.494c8.284 0 15 6.716 15 15v85.075c0 8.284-6.715 15-15 15zm-128.494-30h113.494v-55.075h-113.494z" fill="#aa6031"/></g><path d="m181.801 383.655v-84.941c0-8.284-6.716-15-15-15h-143.494c-8.284 0-15 6.716-15 15v84.941c0 .599.045 1.188.113 1.769h173.268c.068-.582.113-1.17.113-1.769zm-30-15h-113.494v-55.051l57.703-10.891 55.791 10.891z" fill="#c27a48"/><path d="m15 223.604c-8.284 0-15 6.716-15 15v60c0 8.284 6.716 15 15 15h241l25.001-45-25.001-45z" fill="#864d3a"/><path d="m497 223.604h-241v90h241c8.284 0 15-6.716 15-15v-60c0-8.284-6.716-15-15-15z" fill="#773f30"/><path d="m148.803 168.81h107.197l10-59.92-10-56.534h-107.197z" fill="#6cf"/><path d="m256 52.356h107.198v116.455h-107.198z" fill="#39f"/><path d="m159.802 162.836v-104.506h96.198l5-15.902-5-14.098h-111.198c-8.284 0-15 6.716-15 15v134.505c0 8.284 6.716 15 15 15h111.198l6-13.528-6-16.472h-96.198z" fill="#283366"/><path d="m367.198 28.33h-111.198v30h96.198v104.505h-96.198v30h111.198c8.284 0 15-6.716 15-15v-134.505c0-8.284-6.716-15-15-15z" fill="#101040"/></g></svg>